<svg height="64" viewBox="0 0 64 64" width="64" xmlns="http://www.w3.org/2000/svg" xmlns:xlink="http://www.w3.org/1999/xlink"><defs>     <clipPath id="clip-path">     <path d="M7,2V62H57V2Zm4.58,37.81-.11,0L12,36.31l.73.17ZM52.34,14.48,51.25,8.67l.75-.1.45,5.9Z" fill="none"/> </clipPath> </defs><title/><g data-name="row 6 Buildings_1" id="row_6_Buildings_1">     <g data-name="wooden structure" id="wooden_structure">     <g clip-path="url(#clip-path)">     <path d="M53,57V7a2,2,0,0,0-2-2H13a2,2,0,0,0-2,2V57a2,2,0,0,0,2,2H51A2,2,0,0,0,53,57ZM11,41.08s4.75-5.83,5.25-12.83S15.58,5,15.58,5m4.17,0a83.76,83.76,0,0,0,.75,12.5c.92,6.5-.51,11.75-.17,16.58S25,45.17,25,48.58M21,59c2.08-6.33-1-21.55-5.08-17s-1.25,17-1.25,17m2.66-11.17a14.37,14.37,0,0,0-.15,7.59M28.5,59a34.52,34.52,0,0,0,.58-10.83C28.5,41.83,25,35.25,25,35.25M35.25,5s-1.33,7.17-.58,12c1,6.34,3.66,11.28,4.5,16.53M36.25,59a57.61,57.61,0,0,0,.88-18.5C35.85,31.11,31.33,28,30,18.73c-.71-5,.5-13.73.5-13.73M25.38,5C23.25,25.88,28,27.05,30.25,34.63m2.37,12.5a29,29,0,0,0-1.62-9m22-14.5C52,16.58,50.42,5,47.75,5s.5,13.17.5,13.17M46.38,58.75A46.18,46.18,0,0,0,49,42.13c-.25-9.42-1.58-12.46-4-21.13A52.07,52.07,0,0,1,43,5M41.5,59S43,47.11,43,40.88C43,29.17,39,20,39,12.7" fill="none" stroke="#c48669" stroke-linecap="round" stroke-linejoin="round" stroke-width="2"/> </g> </g> </g></svg>