<svg xmlns="http://www.w3.org/2000/svg" xmlns:xlink="http://www.w3.org/1999/xlink" viewBox="0 0 24 24" xmlns:v="https://vecta.io/nano"><use xlink:href="#D" fill="#73879e"/><path d="M12 1C6.678 1 1 1.734 1 10.5c0 .042.005.077.005.119C1.065 1.984 6.706 1.25 12 1.25s10.938.734 10.995 9.375c0-.044.005-.081.005-.125C23 1.734 17.322 1 12 1z" fill="#fff" opacity=".2"/><path d="M12 19.75a39.38 39.38 0 0 1-1.132-.018l-2.184 2.494c-.292.333-.712.523-1.152.523-.845 0-1.532-.687-1.532-1.532v.25C6 22.313 6.687 23 7.532 23c.44 0 .86-.19 1.152-.523l2.184-2.494L12 20c5.322 0 11-.734 11-9.5 0-.044-.005-.081-.005-.125-.057 8.641-5.699 9.375-10.995 9.375zm-6-.534v-.25c-3.333-1.209-4.965-4.031-4.995-8.598L1 10.499c0 4.641 1.637 7.497 5 8.717z" opacity=".1" fill="#010101"/><path d="M16.721 13.052c-.001-.001-1.225-.603-1.992-.996-.864-.445-1.887.39-2.368.865-.436-.17-1.3-.567-2.007-1.274S9.249 10.075 9.079 9.64c.476-.481 1.311-1.501.865-2.368L8.948 5.28A.5.5 0 0 0 8.5 5h-1C6.375 5 5 6.385 5 8c0 1.57 1.88 4.587 3.146 5.854S12.43 17 14 17c1.615 0 3-1.375 3-2.5v-1a.5.5 0 0 0-.279-.448zM12 9a1 1 0 0 1 1 1 .5.5 0 1 0 1 0c0-1.103-.897-2-2-2a.5.5 0 1 0 0 1zm0-5a.5.5 0 1 0 0 1 5.01 5.01 0 0 1 5 5 .5.5 0 1 0 1 0 6.01 6.01 0 0 0-6-6zm0 3c1.654 0 3 1.346 3 3a.5.5 0 1 0 1 0c0-2.206-1.794-4-4-4a.5.5 0 1 0 0 1z" fill="#eff1f4"/><linearGradient gradientUnits="userSpaceOnUse" id="A" x1="8.111" x2="20.311" y1="5.758" y2="17.959">     <stop offset="0" stop-color="#010101" stop-opacity=".1"/>     <stop offset="1" stop-color="#010101" stop-opacity="0"/> </linearGradient><path d="M16.75 6.338l.003.014C17.532 7.365 18 8.627 18 10a.5.5 0 1 1-1 0c0-.237-.038-.463-.07-.691l-1.813-1.813v.027A3.96 3.96 0 0 1 16 10a.5.5 0 0 1-.5.5c-.232 0-.419-.161-.475-.376l-.003.085-1.368-1.332h-.001c.219.321.347.707.347 1.123a.5.5 0 1 1-1 0 1 1 0 0 0-1-1 .5.5 0 0 1-.5-.5c0-.188.108-.346.262-.431L8.781 5.088v.006c.069.048.13.108.168.185.001.001.603 1.225.996 1.992.445.867-.39 1.887-.865 2.368.17.436.567 1.3 1.274 2.007s1.571 1.104 2.007 1.274c.481-.476 1.504-1.311 2.368-.865l1.992.996A.5.5 0 0 1 17 13.5v1c0 1.125-1.385 2.5-3 2.5-1.57 0-4.587-1.88-5.854-3.146l6.08 6.08c4.134-.27 7.962-1.617 8.651-7.468L16.75 6.338z" fill="url(#A)"/><linearGradient gradientUnits="userSpaceOnUse" id="B" x1="1.172" x2="21.619" y1="7.029" y2="16.564">     <stop offset="0" stop-color="#fff" stop-opacity=".2"/>     <stop offset="1" stop-color="#fff" stop-opacity="0"/> </linearGradient><use xlink:href="#D" fill="url(#B)"/><defs>     <path id="D" d="M12 1C6.678 1 1 1.734 1 10.5c0 4.641 1.637 7.497 5 8.717v2.251C6 22.313 6.687 23 7.532 23c.44 0 .86-.19 1.152-.523l2.184-2.494L12 20c5.322 0 11-.734 11-9.5S17.322 1 12 1z"/> </defs></svg>