<svg xmlns="http://www.w3.org/2000/svg" width="85.333" height="85.333" viewBox="0 0 64 64" preserveAspectRatio="xMidYMid meet" xmlns:v="https://vecta.io/nano"><path fill="white" d="M26.9.9c-5.1 1-12.1 5.9-15.1 10.6-5.4 8.4-5.1 18.1.9 27.3l3.4 5.2-2.6 5.9c-3.4 7.5-3.1 9.5 1.5 9.9 1.9.2 4.5 1.3 5.7 2.4 3 2.8 4.8 1.8 8-4.7 1.5-3 3-5.5 3.4-5.5s1.7 2.5 3 5.5c2.7 6.3 5.1 7.6 8.2 4.7 1.2-1.1 3.8-2.2 5.7-2.4 4.6-.4 4.9-2.4 1.5-9.9L47.9 44l3.7-5.7c3.6-5.3 3.8-6 3.8-13.8 0-7.3-.3-8.6-2.9-12.6C49 6.6 42.4 2 36.6.9c-4.7-.9-4.8-.9-9.7 0zm11.6 2.9c4.9 1.2 8.8 4.2 11.9 9 2.6 3.9 2.9 5.4 2.9 11.7s-.3 7.8-2.8 11.6c-9 13.8-28 13.8-37 0-2.5-3.8-2.8-5.3-2.8-11.6s.3-7.8 2.8-11.6C16.7 8 22 4 25.3 4c1.2 0 2.9-.5 3.7-1 .8-.6 2.6-.8 4-.5a207.32 207.32 0 0 1 5.5 1.3zM25.9 47.7c2.3.3 4.1.9 4.1 1.3 0 1.4-4.9 11.8-5.8 12.4-.5.3-1.7-.3-2.7-1.4-1.1-1.2-3.1-2-5.2-2-1.8 0-3.3-.3-3.3-.8 0-.4 1.2-3.5 2.7-7 2.4-5.8 2.7-6.1 4.4-4.6.9.9 3.6 1.8 5.8 2.1zm25 9c.1.8-1.2 1.3-3.2 1.3-2.1 0-4.1.8-5.2 2-1 1.1-2.2 1.7-2.7 1.4-.9-.6-5.8-11-5.8-12.4 0-.4 1.9-1 4.1-1.3 2.3-.3 4.9-1.3 5.8-2.2 1.5-1.5 1.8-1.1 4.3 4.2 1.4 3.2 2.7 6.4 2.7 7zM26.1 6.5C12 11 8.5 29.6 20 39.3c2.9 2.5 8.6 4.7 12 4.7s9.1-2.2 12-4.7C59.9 26 45.9.2 26.1 6.5zm14.6 3.4c3.8 2 7.5 7.8 8 12.5.7 5.9-1.1 10.9-5.2 14.5-6.4 5.6-15.6 6.1-21.7 1.2l-2.3-1.9 2.9-.8c1.6-.4 4.3-.2 6.1.5 4.3 1.5 11 1.4 12.4-.2.6-.8.8-1.7.4-2-.3-.4 0-1.3.7-2.2s1-1.8.7-2.2c-.4-.3-.2-1.2.4-1.9.7-.9.7-1.9-.1-3.3-.6-1.2-.8-2.1-.5-2.1s.1-.9-.5-2c-.7-1.3-2.1-2-4-2-2.7 0-2.9-.2-1.9-1.9.7-1 .9-2.6.6-3.5-1.1-2.9-4.4-1.7-8.4 3-3.8 4.5-3.9 4.6-8.1 3.8l-4.2-.9 2-3.2C22.4 8 32.6 5.5 40.7 9.9zM35 13.8c0 .5-.7 1.7-1.5 2.8-2.2 2.9-1.8 3.4 2.5 3.4 4.1 0 4.9.7 2.8 2.8-.9.9-.6 1.4 1.3 2.1 2.1.8 2.2 1 .6 1.6-1.2.5-1.6 1.4-1.2 2.6.4 1.1.2 1.9-.5 1.9s-.9.8-.5 2.1c.8 2.3.9 2.3-12.2.3l-4.3-.6v-4.9c0-4.3.3-5.1 2.4-5.8 1.2-.5 3.8-2.8 5.5-5 3.1-3.8 5.1-5.2 5.1-3.3zM20 27.6c0 4.8-.3 6.5-1.2 6.2-2-.7-3.8-4.9-3.8-9.1 0-3.3.3-3.7 2.5-3.7 2.4 0 2.5.2 2.5 6.6z"/></svg>