<svg xmlns="http://www.w3.org/2000/svg" width="85.333" height="85.333" viewBox="0 0 64 64" preserveAspectRatio="xMidYMid meet" xmlns:v="https://vecta.io/nano"><path fill="white" d="M23.5 1.9c-2.2 1-4.6 2.5-5.4 3.4-.9 1.2-2.9 1.7-6.2 1.7H7v10.5V28h7.5c4.3 0 7.5-.4 7.5-1s-1.1-1-2.5-1C16.9 26 9 19.1 9 16.7c0-.6 1.4-2 3-2.9 1.7-.9 3-2.4 3-3.3C15 9.3 16.4 9 23 9c7.6 0 8 .1 6.9 1.9-.7 1-2 1.6-2.9 1.4-2.3-.6-5 2.3-5 5.2 0 3.3 4.1 6 6.9 4.6 1.1-.6 2.2-2 2.6-3 1.1-3.4 12.5-4 12.5-.7 0 .7-1.1 1.8-2.4 2.4s-2.7 2-3.1 3.1C38 25.5 37 26 34.4 26c-1.9 0-3.4.4-3.4 1s3.3 1 8 1h8v-4.8c0-4.4.2-4.9 3-5.9 1.7-.7 3.2-.7 3.6-.2.3.5 2.7.9 5.5.9H64V9 0H45.8C30.3 0 26.9.3 23.5 1.9zM53 7.8c0 2.6-.5 5.3-1.2 6-1.5 1.5-8 1.6-9.5.1-.9-.9-2.3-.9-5.2-.1-3.9.9-5.9.3-4.7-1.7.3-.4 3.3-1.6 6.6-2.5s6-2 6-2.5c0-.4-5.5-.6-12.2-.4l-12.3.4L22.9 5c2.1-1.8 3.6-2 16.2-2H53v4.8zm8 1.7c0 6.3-.1 6.5-2.5 6.5S56 15.8 56 9.5 56.1 3 58.5 3s2.5.2 2.5 6.5zm-49 1c-.7.8-1.6 1.5-2.1 1.5s-.9-.7-.9-1.5c0-.9.9-1.5 2.1-1.5 1.8 0 1.9.2.9 1.5zM29 17c0 2.4-2.6 3.8-4.2 2.2S24.6 15 27 15c1.3 0 2 .7 2 2zm-16.6 7.6c.3.9-.1 1.4-1.4 1.4s-2-.7-2-2c0-2.2 2.5-1.8 3.4.6zM44 24c0 1.1-.7 2-1.5 2-1.8 0-1.9-1.2-.3-2.8s1.8-1.5 1.8.8zm-19 3a1.08 1.08 0 0 0 1 1c.6 0 1-.5 1-1a.94.94 0 0 0-1-1c-.5 0-1 .4-1 1zM12.8 38.7l-.3 7.8-6.2-.3-6.3-.4v9.1V64h18c19.3 0 22.9-.7 27.8-5.3 3.2-3 6.3-9.2 5.6-11.2-.4-.8-1.7-1.8-3-2.1-2.2-.6-2.4-1.1-2.4-7.5V31H29.5 13.1l-.3 7.7zm11.4-2c.2 2.8.7 3.7 1.8 3.4 1.9-.6 6.1-.6 8 0 1.1.3 1.6-.6 1.8-3.4.3-3.6.4-3.7 4.3-3.7H44v7.1c0 6-.4 7.5-2.6 10.5-3 3.8-4.4 4.3-4.4 1.5 0-2.2-1.9-3.1-6.4-3.1-2 0-4-.8-5.1-2-1-1.1-3.6-2.3-5.7-2.6l-3.8-.7v-5.3V33h3.9c3.9 0 4 .1 4.3 3.7zm8.8-1.9c0 1.4-.8 1.8-3.5 1.9-2.8.1-3.5-.3-3.5-1.8s.7-1.9 3.5-1.9c2.7 0 3.5.4 3.5 1.8zM24 49c1.2 1.2 3.3 2 5.3 2 1.7 0 3.8.4 4.6.9 2.4 1.5.1 3.1-4.4 3.1-2.4 0-4.7.4-5 1-.4.6 2.1 1 6.9 1h7.5l3.8-4.5c5.7-6.9 8.5-5.9 3.9 1.4-3.8 6-8 7.4-22.8 7.9l-12.8.4v-6c0-5.2.3-6.3 2.2-7.6 3.1-2.2 8.4-2 10.8.4zM8 55c0 6.8-.1 7-2.5 7S3 61.8 3 55s.1-7 2.5-7 2.5.2 2.5 7z"/></svg>