<svg xmlns="http://www.w3.org/2000/svg" height="91" width="91" xmlns:v="https://vecta.io/nano"><path fill="white" d="M88.501 51.854l-11.448-6.569 11.448-6.572c.658-.378 1.055-1.089 1.034-1.849a2.06 2.06 0 0 0-1.14-1.785l-18.614-9.305a2.063 2.063 0 0 0-1.846 3.69l15.176 7.586-10.271 5.896-6.501-3.25a2.06 2.06 0 0 0-2.767.922c-.51 1.02-.098 2.258.921 2.768l3.799 1.898L46.02 56.419 23.75 45.285l4.282-2.141c1.021-.509 1.433-1.749.925-2.768s-1.752-1.433-2.769-.924l-6.982 3.49-10.271-5.893 19.487-9.742c1.019-.509 1.431-1.748.921-2.768a2.06 2.06 0 0 0-2.767-.922L3.649 35.08a2.06 2.06 0 0 0-1.14 1.785c-.021.761.376 1.471 1.036 1.849l11.452 6.572-11.451 6.568c-.66.378-1.057 1.088-1.036 1.85a2.06 2.06 0 0 0 1.14 1.784l13.428 6.715v13.266c0 .78.441 1.494 1.14 1.844l26.883 13.441c.292.146.606.217.923.217.311 0 .615-.086.901-.227.008-.002.012.014.021.01l26.883-13.441c.698-.35 1.14-1.063 1.14-1.844V62.201l13.427-6.713a2.06 2.06 0 0 0 1.14-1.784 2.07 2.07 0 0 0-1.035-1.85zm-69.294-4.228l6.755 3.377 15.698 7.849-10.27 5.893L8.935 53.52l10.272-5.894zm1.996 16.638l9.332 4.666c.292.146.606.217.923.217.355 0 .71-.09 1.026-.272l11.477-6.586v23.284l-22.758-11.38v-9.929zm49.641 9.928l-22.758 11.38V62.286l11.475 6.588c.316.183.672.272 1.026.272a2.04 2.04 0 0 0 .923-.217l9.334-4.666v9.929zm-10.19-9.447l-10.269-5.894 22.457-11.228 10.269 5.894-22.457 11.228zM39.615 26.336c.614.522 1.476.639 2.203.302a2.06 2.06 0 0 0 1.199-1.873v-3.949h3.921c2.325 0 4.219 1.894 4.219 4.22s-1.894 4.216-4.219 4.216H33.714c-1.14 0-2.063.923-2.063 2.063v9.982c0 1.14.923 2.063 2.063 2.063h13.225c10.105 0 18.324-8.219 18.324-18.323S57.044 6.712 46.939 6.712h-3.921V2.765A2.06 2.06 0 0 0 41.819.892c-.727-.337-1.589-.221-2.203.302l-12.91 11.001c-.46.393-.725.966-.725 1.57s.265 1.178.725 1.57l12.909 11.001zm-.723-19.104v1.543c0 1.14.923 2.063 2.063 2.063h5.984a14.22 14.22 0 0 1 14.199 14.2c0 7.829-6.369 14.198-14.199 14.198H35.776v-5.857h11.162c4.601 0 8.344-3.741 8.344-8.341s-3.743-8.345-8.344-8.345h-5.984c-1.14 0-2.063.923-2.063 2.063V20.3l-7.669-6.533 7.67-6.535z"/></svg>