<svg xmlns="http://www.w3.org/2000/svg" height="100" width="100" xmlns:v="https://vecta.io/nano"><path d="M50.014 14.491c-12.959 0-23.505 10.625-23.505 23.654 0 4.725 1.388 9.087 3.746 12.778l10.962 17.223c-.61.252-1.193.504-1.748.812-2.831 1.51-5.134 3.914-5.134 7.073 0 3.188 2.303 5.592 5.134 7.102 2.858 1.538 6.521 2.377 10.545 2.377 3.997 0 7.66-.839 10.519-2.377 2.83-1.51 5.134-3.914 5.134-7.102 0-3.159-2.304-5.563-5.134-7.073-.556-.308-1.11-.56-1.721-.812l10.962-17.223c2.358-3.691 3.718-8.053 3.718-12.778-.001-13.029-10.546-23.654-23.478-23.654h0zm0 4.725c10.407 0 18.788 8.444 18.788 18.929 0 3.774-1.082 7.297-2.97 10.233l-15.79 24.884-15.846-24.884c-1.888-2.936-2.997-6.459-2.997-10.233 0-10.485 8.408-18.929 18.815-18.929h0zm0 8.696c-5.605 0-10.185 4.614-10.185 10.233 0 5.648 4.579 10.261 10.185 10.261 5.578 0 10.186-4.613 10.186-10.261-.001-5.62-4.608-10.233-10.186-10.233h0zm0 4.725c3.053 0 5.468 2.432 5.468 5.508s-2.415 5.536-5.468 5.536-5.494-2.46-5.494-5.536 2.441-5.508 5.494-5.508h0zm-6.189 39.619l4.219 6.626c.416.644 1.193 1.063 1.97 1.063s1.555-.419 1.971-1.063l4.219-6.626c.776.252 1.498.531 2.137.867 1.97 1.034 2.636 2.181 2.636 2.907 0 .755-.666 1.901-2.636 2.936-1.998 1.063-4.995 1.817-8.326 1.817-3.357 0-6.354-.755-8.325-1.817-1.97-1.034-2.636-2.181-2.636-2.936 0-.727.666-1.873 2.636-2.907.609-.336 1.331-.615 2.135-.867h0z" fill="white"/></svg>