<svg xmlns="http://www.w3.org/2000/svg" viewBox="0 0 26 26"><path d="M23.434 8.879H21.18l-.646-3.658c-.148-.85-.97-1.417-1.812-1.271L2.294 6.848c-.849.149-1.418.963-1.268 1.813l1.752 9.934c.072.411.3.771.642 1.011.267.187.576.284.895.284.092 0 .184-.008.275-.024l.599-.106v.751c0 .862.701 1.563 1.563 1.563h16.682c.862 0 1.564-.701 1.564-1.563V10.442c0-.862-.702-1.563-1.564-1.563zm.064 1.563v1.471H6.694l.058-1.534 16.746.063zM4.255 18.334l-1.469-8.328-.231-1.682L19.058 5.48l.599 3.398H6.752c-.862 0-1.563.701-1.563 1.563v7.767l-.934.125zm19.179 2.239L6.688 20.51v-5.941h16.81v5.941c0 .035-.029.063-.064.063z" fill="white"/></svg>