<svg xmlns="http://www.w3.org/2000/svg" viewBox="0 0 64 64" xmlns:v="https://vecta.io/nano"><style><![CDATA[.B{stroke-linejoin:round}.C{stroke-width:2}.D{stroke-linecap:round}]]></style><g fill="none" stroke="white" class="B C"><g class="D">     <path d="M12 48V34m11.487-10h16.259A4.255 4.255 0 0 1 44 28.254V53"/>     <path d="M48.434,53H44V34h9.247a6.645,6.645,0,0,1,5.565,2.99L62,41.869V53H57.919"/>     <path d="M18.461,53H9v-.987A4.013,4.013,0,0,1,13.013,48H44v5H27.778"/> </g><circle cx="53.25" cy="52.75" r="4.528"/><path d="M26 34H1" class="D"/></g><circle fill="white" cx="53.25" cy="52.75" r="1.636"/><circle cx="23.25" cy="52.75" r="4.528" fill="none" stroke="white" class="B C"/><circle fill="white" cx="23.25" cy="52.75" r="1.636"/><g fill="none" stroke="white" class="B C"><circle cx="14.685" cy="24.845" r="8.802"/><path d="M15 20.47v4.375l-2.233 3.062" class="D"/><path d="M51,37v7h6.731a.736.736,0,0,0,.639-1.1l-2.335-4.086A3.6,3.6,0,0,0,52.913,37Z"/><path d="M20 38H7m8 4H1" class="D"/></g></svg>