<svg xmlns="http://www.w3.org/2000/svg" width="512" height="512" style="shape-rendering:geometricPrecision;text-rendering:geometricPrecision;image-rendering:optimizeQuality;fill-rule:evenodd;clip-rule:evenodd"><path fill="#73879e" style="opacity:.974" d="M238.5-.5h31c85.748 7.61 152.581 46.943 200.5 118 .5-17.33.667-34.663.5-52h40v121h-119v-41c15.67.167 31.337 0 47-.5-49.178-75.92-119.178-110.253-210-103C156.402 52.81 102.235 89.644 66 152.5c-17.01 32.216-25.844 66.549-26.5 103h-40v-23C11.626 134.566 61.96 64.067 150.5 21c28.264-12.08 57.597-19.247 88-21.5z"/><path fill="#73879e" style="opacity:.975" d="M177.5 140.5a1969.212 1969.212 0 0 1 65.5 64c.667.667.667 1.333 0 2L210.5 239a377.078 377.078 0 0 0 61.5 60.5 1561.937 1561.937 0 0 1 33.5-33 6296.244 6296.244 0 0 1 67 66.5l-31 31c-8.801 5.948-18.468 7.948-29 6-27.156-7.578-51.823-19.911-74-37-25.574-20.906-48.407-44.406-68.5-70.5-15.292-20.925-24.792-44.258-28.5-70 .043-7.963 2.21-15.296 6.5-22a1245.314 1245.314 0 0 0 29.5-30z"/><path fill="#73879e" style="opacity:.974" d="M511.5 255.5v23c-12.52 99.012-63.853 169.846-154 212.5-27.72 11.373-56.387 18.206-86 20.5h-31c-85.748-7.61-152.581-46.943-200.5-118-.5 17.33-.667 34.663-.5 52h-40v-121h120v41c-16.003-.167-32.004 0-48 .5 49.176 75.919 119.176 110.252 210 103 75.808-11.623 131.641-51.123 167.5-118.5 14.263-30.053 21.763-61.72 22.5-95h40z"/></svg>