<svg xmlns="http://www.w3.org/2000/svg" height="100%" viewBox="0 0 64 64" width="100%" fill-rule="nonzero" stroke-linejoin="round" stroke-miterlimit="1.41421" fill="white"><path d="M42.321 39.72l-7.198-4.427.681-1.107 7.198 4.427-.681 1.107zm2.411-3.921l-7.588-4.667.681-1.107 7.588 4.666-.681 1.108z"/><path d="M43.862 40.157a2.93 2.93 0 0 1-1.541-.437l.681-1.107c.775.477 1.794.233 2.271-.542s.235-1.795-.541-2.272l.681-1.108a2.93 2.93 0 0 1 .968 4.061c-.557.905-1.527 1.405-2.519 1.405z"/><path d="M42.075 44.464a2.93 2.93 0 0 1-1.541-.439l-7.823-4.811.681-1.107 7.823 4.811c.375.23.819.302 1.248.2a1.64 1.64 0 0 0 1.224-1.99 1.64 1.64 0 0 0-.742-1.024l-.624-.384.681-1.107.624.384a2.93 2.93 0 0 1 .968 4.061 2.93 2.93 0 0 1-1.829 1.324c-.229.055-.461.082-.69.082z"/><path d="M39.039 48a2.93 2.93 0 0 1-1.541-.438l-1.743-1.071.681-1.108 1.742 1.072c.777.477 1.795.233 2.273-.542.231-.376.302-.819.199-1.248a1.64 1.64 0 0 0-.741-1.024l.681-1.107a2.93 2.93 0 0 1 .968 4.06 2.93 2.93 0 0 1-1.83 1.325c-.229.055-.46.081-.689.081zM7.695 31.596a1.55 1.55 0 0 0 2.13-.508l7.858-12.777a1.55 1.55 0 0 0-.508-2.129l-2.426-1.492-9.48 15.414 2.426 1.492zm.806 1.528a2.83 2.83 0 0 1-1.486-.42L3.481 30.53l10.841-17.628 3.534 2.173a2.85 2.85 0 0 1 .935 3.917l-7.858 12.777a2.85 2.85 0 0 1-2.432 1.355z"/><path d="M34.885 50.85c-.54 0-1.07-.149-1.541-.438l-10.792-6.638a18.29 18.29 0 0 1-4.756-4.216l-3.305-4.159-5.309-3.264 9.144-14.869 3.57 2.195c1.086.668 2.335.976 3.603.891l3.725-.249a9.63 9.63 0 0 1 3.277.343l-.352 1.251a8.44 8.44 0 0 0-2.838-.297l-3.725.249c-1.545.103-3.054-.271-4.371-1.08l-2.462-1.515-7.783 12.654 4.468 2.793 3.376 4.248c1.238 1.558 2.725 2.876 4.418 3.918l10.793 6.637c.375.231.819.303 1.248.2a1.64 1.64 0 0 0 1.224-1.989c-.102-.43-.366-.793-.742-1.024l-5.449-3.352.681-1.107 5.449 3.351a2.93 2.93 0 0 1 .968 4.061c-.413.671-1.063 1.142-1.829 1.325a3.01 3.01 0 0 1-.69.081zM49.25 14.696l-2.427 1.492a1.55 1.55 0 0 0-.507 2.13l7.858 12.777a1.55 1.55 0 0 0 2.13.507l2.426-1.492-9.48-15.414zm6.248 18.434a2.85 2.85 0 0 1-2.432-1.354l-7.857-12.778a2.85 2.85 0 0 1 .933-3.917l3.535-2.173 10.841 17.628-3.534 2.173a2.82 2.82 0 0 1-1.486.421z"/><path d="M20.813 45.153c-.23 0-.461-.027-.69-.081-.767-.183-1.417-.654-1.83-1.325-.785-1.276-.482-2.936.704-3.863l.8 1.025c-.664.518-.834 1.445-.397 2.157a1.64 1.64 0 0 0 2.272.541l1.205-.74.681 1.107-1.205.741c-.471.289-1.001.438-1.54.438z"/><path d="M18.388 41.223a2.94 2.94 0 0 1-2.379-4.678l1.052.765c-.395.543-.424 1.264-.072 1.834.435.709 1.336.978 2.096.625l.545 1.179a2.94 2.94 0 0 1-1.242.275zm6.572 6.781c-.992.001-1.962-.499-2.519-1.403a2.95 2.95 0 0 1 .386-3.581l.94.899a1.65 1.65 0 0 0-.219 2c.477.776 1.496 1.018 2.273.541l1.45-.891.68 1.107-1.449.892c-.481.296-1.015.436-1.542.436z"/><path d="M29.114 50.854c-.992 0-1.962-.499-2.519-1.404a2.96 2.96 0 0 1 .632-3.807l.831.999c-.628.522-.781 1.436-.356 2.126.478.776 1.496 1.02 2.273.542l1.689-1.039.681 1.107-1.69 1.039a2.93 2.93 0 0 1-1.541.437zm15.584-9.64l-.912-.926c.57-.561 1.014-1.048 1.4-1.533l3.544-4.397 4.853-2.985.68 1.108-4.755 2.924-3.305 4.159c-.418.527-.897 1.052-1.505 1.65z"/><path d="M21.285 33.72c-1.639 0-3.242-.825-4.161-2.321l-1.134-1.843 13.059-8.031a9.66 9.66 0 0 1 5.726-1.416l3.725.249c1.275.09 2.517-.223 3.603-.891l3.57-2.195 8.804 14.315a.65.65 0 1 1-1.108.681L45.246 19.06l-2.462 1.515c-1.318.81-2.828 1.181-4.371 1.08l-3.725-.249c-1.749-.116-3.464.307-4.958 1.226l-11.952 7.351.453.736a3.58 3.58 0 0 0 4.918 1.172l4.022-2.474a3.56 3.56 0 0 1 3.482-.149l1.461.735a5.55 5.55 0 0 0 5.439-.233l3.005-1.848a.65.65 0 1 1 .68 1.108l-3.004 1.848a6.84 6.84 0 0 1-6.704.287l-1.461-.735a2.26 2.26 0 0 0-2.216.095l-4.023 2.473a4.84 4.84 0 0 1-2.545.722z"/></svg>