<svg width="512pt" height="512pt" version="1.0" viewBox="0 0 512 512" xmlns="http://www.w3.org/2000/svg"><g transform="translate(0 512) scale(.1 -.1)"><path fill="#ba9bc9" d="m912 4900c-65-40-72-65-72-252v-167l-174-3c-191-3-202-6-250-72l-21-27v-2037-2037l23-36c46-75-118-69 1924-69 1811 0 1833 0 1866 20 65 40 72 65 72 252v167l174 3c191 3 202 6 250 72l21 27v2037 2037l-23 36c-46 75 118 69-1924 69-1811 0-1833 0-1866-20zm3518-2120v-1851l-72 3-73 3-10 3454-21 28c-11 15-36 36-55 45-32 17-127 18-1551 18h-1518v75 75h1650 1650v-1850zm-3310 1295c64-63 122-115 129-115 28 0 51 22 51 48 0 21-17 45-70 97-38 38-70 73-70 77 0 5 60 8 132 8h133l117-117c112-111 119-117 145-107 20 7 29 17 31 37 3 23-9 41-67 101-39 40-71 76-71 79 0 4 59 7 132 7h131l118-116c104-103 121-116 143-110 16 4 28 16 32 32 6 22-3 36-70 103-42 42-76 80-76 84s59 7 132 7h132l116-115c64-63 125-115 135-115 23 0 55 28 55 48 0 8-34 49-75 91-41 43-75 80-75 84s59 7 132 7h132l116-115c114-112 142-129 168-103 28 28 13 62-58 133-38 38-70 73-70 77 0 5 59 8 132 8h132l116-115c64-63 122-115 129-115 28 0 51 22 51 48 0 21-17 45-70 97-38 38-70 73-70 77 0 5 59 8 132 8h131l117-115c64-63 123-115 132-115 23 0 48 27 48 52 0 12-32 53-77 99l-77 80 165-3 164-3 3-69c3-61 1-68-14-62-13 5-48-24-141-117-68-67-123-128-123-135 0-18 37-52 56-52 9 0 63 46 120 102l104 102v-157c0-145-1-157-18-157-18 0-262-239-262-256 0-16 23-41 44-48 14-5 42 16 120 94 56 55 105 100 109 100s7-70 7-155c0-152 0-155-22-155-23 0-243-210-253-241-10-29 12-59 43-59 21 0 50 23 129 102l103 103v-163-162h-23c-16 0-58-35-140-118-64-66-117-123-117-128 0-21 32-54 53-54 14 0 57 35 124 102l103 103v-163-162h-23c-16 0-58-35-140-118-64-66-117-123-117-128 0-21 32-54 52-54 13 0 60 38 124 102l104 102v-161c0-149-1-161-18-157-12 4-54-32-140-119-67-68-122-129-122-135 0-15 37-52 51-52 7 0 58 45 114 100 55 55 104 100 108 100s7-70 7-155c0-152 0-155-22-155-23 0-243-210-253-241-10-29 12-59 43-59 21 0 50 23 129 102l103 103v-163-162h-23c-16 0-58-35-140-118-64-66-117-123-117-128 0-21 32-54 53-54 14 0 57 35 124 102l103 103v-163c0-162 0-162-23-162-15 0-57-35-132-110l-110-110h-140-140l78 78c83 84 94 111 53 137-33 22-41 17-166-109l-105-106h-140-140l78 78c59 59 77 84 77 105 0 29-29 48-61 40-9-3-65-54-125-114l-109-109h-132c-73 0-133 3-133 7s34 41 75 84c41 42 75 82 75 88 0 15-37 51-52 51-6 0-64-52-128-115l-116-115h-139-138l76 79c83 85 93 110 53 136-33 22-41 17-166-109l-105-106h-140-140l78 78c83 84 94 111 53 137-33 22-41 17-166-109l-105-106h-140-140l78 78c44 45 77 86 77 97 0 32-16 48-45 48-21 0-51-25-139-112l-111-111h-133c-72 0-132 3-132 7s34 41 74 83c60 61 74 81 69 99-7 29-38 45-61 32-9-5-64-57-122-115l-105-106h-57-58v127 127l63-62c69-68 97-77 122-38 22 33 16 42-94 151l-91 90v140 139l63-62c45-45 70-62 89-62 26 0 48 23 48 51 0 6-45 58-100 114l-100 101v139 138l68-66c73-70 100-78 123-35 14 27-6 55-108 152l-83 79v140 139l65-61c36-33 72-61 80-61 18 0 55 35 55 51 0 7-45 58-100 114l-100 101v139 138l64-61c70-67 97-76 121-38 22 33 16 42-94 151l-91 90v140 139l63-62c38-37 71-62 84-62 25 0 53 25 53 47 0 9-45 62-100 118l-100 101v139 139l63-62c45-45 70-62 89-62 26 0 48 23 48 51 0 6-45 58-100 114l-100 101v139 138l69-66c38-37 74-67 80-67 14 0 51 37 51 51 0 7-45 58-100 114l-100 101v139 138l64-61c70-67 97-76 121-38 21 32 14 43-69 126-36 35-66 68-66 72s59 8 132 8h132l116-115zm2870-3525v-60h-62-62l59 60c33 33 61 60 62 60 2 0 3-27 3-60z"/><path d="m913 3948c-63-62-116-123-120-136-7-31 26-67 54-58 23 7 253 238 253 254 0 18-38 52-57 52-9 0-67-51-130-112z"/><path d="m1328 3943c-94-93-118-123-118-145 0-26 23-48 51-48 7 0 65 53 131 117 94 93 118 123 118 145 0 26-23 48-51 48-7 0-65-53-131-117z"/><path d="m1748 3943c-94-93-118-123-118-145 0-31 30-53 59-43 30 9 241 230 241 253 0 24-25 52-47 52-9 0-69-53-135-117z"/><path d="m2160 3935-125-125 15-28c29-50 45-42 176 89 68 68 124 131 124 140 0 19-31 49-51 49-8 0-70-56-139-125z"/><path d="m2583 3948c-63-62-116-123-120-136-6-26 20-62 47-62 18 0 260 240 260 258s-38 52-57 52c-9 0-67-51-130-112z"/><path d="m2998 3943c-121-120-135-144-102-177 8-9 23-16 31-16 9 0 69 53 135 117 94 93 118 123 118 145 0 26-23 48-51 48-7 0-65-53-131-117z"/><path d="m3418 3943c-94-93-118-123-118-145 0-26 23-48 51-48 7 0 65 53 131 117 121 120 135 144 102 177-8 9-23 16-31 16-9 0-69-53-135-117z"/><path d="m1016 3834c-32-31-18-55 96-170 61-63 120-116 129-119 29-10 59 12 59 43 0 22-25 52-118 145-64 64-125 117-134 117s-24-7-32-16z"/><path d="m1438 3839c-10-6-18-22-18-38 0-21 24-51 118-144 66-64 126-117 135-117 23 0 47 28 47 54 0 25-227 256-251 256-8 0-22-5-31-11z"/><path d="m1845 3826c-12-18-14-30-7-43 15-26 237-243 249-243 6 0 21 8 33 18 37 30 20 58-103 180-121 119-144 131-172 88z"/><path d="m2267 3832c-10-10-17-25-17-33 0-17 241-259 258-259 16 0 52 37 52 53 0 18-242 257-261 257-9 0-23-8-32-18z"/><path d="m2686 3834c-31-30-18-55 82-156 126-129 146-144 178-129 17 7 24 19 24 38 0 23-24 52-118 146-64 64-125 117-134 117s-24-7-32-16z"/><path d="m3108 3839c-10-6-18-22-18-38 0-21 24-51 118-144 66-64 126-117 135-117 23 0 47 28 47 54 0 25-227 256-251 256-8 0-22-5-31-11z"/><path d="m3517 3829c-8-11-13-29-10-39 6-21 235-250 250-250 6 0 21 8 33 18 37 30 20 58-103 180-118 116-143 130-170 91z"/><path d="m907 3522c-78-78-117-125-117-139 0-26 36-54 59-46s239 223 244 244c7 25-20 59-46 59-15 0-61-38-140-118z"/><path d="m1327 3522c-78-78-117-125-117-139 0-26 34-53 60-46 10 3 68 55 129 117 112 114 129 144 99 174-27 27-55 11-171-106z"/><path d="m1747 3522c-102-103-118-123-115-147 2-19 11-31 27-37 21-8 36 4 147 114 68 67 124 130 124 139 0 22-26 49-48 49-10 0-70-53-135-118z"/><path d="m2158 3522c-65-65-118-126-118-135 0-19 34-57 52-57s258 242 258 261c0 24-27 49-53 49-14 0-62-41-139-118z"/><path d="m2583 3528c-123-122-140-150-103-180 12-10 27-18 33-18 12 0 234 217 249 243 13 24-15 67-44 67-13 0-62-40-135-112z"/><path d="m2997 3522c-78-78-117-125-117-139 0-26 36-54 59-46 9 3 67 56 129 117 114 112 131 143 100 174-27 27-55 11-171-106z"/><path d="m3417 3522c-93-93-117-123-117-145 0-35 34-50 70-32 14 7 71 60 128 118 103 105 120 135 90 165-27 27-55 11-171-106z"/><path d="m1012 3418c-27-27-10-54 105-170 116-117 144-133 171-106s10 54-105 170c-116 117-144 133-171 106z"/><path d="m1432 3418c-31-31-14-62 101-176 114-114 144-131 175-100 27 27 10 54-105 170-116 117-144 133-171 106z"/><path d="m1846 3408c-9-12-16-27-16-32s53-62 117-128c119-120 149-138 181-106 26 26 9 54-105 170-123 125-148 138-177 96z"/><path d="m2266 3414c-9-8-16-23-16-32 0-10 53-70 118-135 92-91 123-117 144-117 31 0 53 30 43 59-3 9-56 68-119 129-115 114-139 128-170 96z"/><path d="m2682 3418c-27-27-11-55 106-171 103-102 123-118 147-115 19 2 31 11 37 27 8 21-4 36-114 147-121 123-148 140-176 112z"/><path d="m3102 3418c-31-31-13-61 101-175s144-132 175-101c27 27 10 54-105 170-116 117-144 133-171 106z"/><path d="m3516 3409c-8-12-12-29-9-38s56-67 117-128c112-115 143-132 174-101 27 27 10 54-105 170-123 124-148 137-177 97z"/><path d="m907 3102c-115-116-132-143-105-170 31-31 62-14 174 101 61 61 114 119 117 128 8 24-20 59-46 59-15 0-61-38-140-118z"/><path d="m1327 3102c-115-116-132-143-105-170s55-11 171 106c115 116 132 143 105 170s-55 11-171-106z"/><path d="m1753 3118c-123-121-139-145-117-177 29-40 54-27 177 97 115 116 132 143 105 170-30 30-60 13-165-90z"/><path d="m2157 3102c-64-66-117-124-117-131 0-28 22-51 48-51 22 0 52 24 145 118 64 66 117 124 117 131 0 28-22 51-48 51-22 0-52-24-145-118z"/><path d="m2577 3102c-115-116-132-143-105-170 32-32 62-14 182 107 102 103 117 123 111 143-4 13-13 26-19 30-30 20-56 3-169-110z"/><path d="m2997 3102c-115-116-132-143-105-170 31-31 61-13 175 101s132 144 101 175c-27 27-55 11-171-106z"/><path d="m3417 3102c-115-116-132-143-105-170s55-11 171 106c115 116 132 143 105 170s-55 11-171-106z"/><path d="m1012 2998c-27-27-10-54 105-170 116-117 144-133 171-106 31 31 13 61-101 175s-144 132-175 101z"/><path d="m1432 2998c-27-27-10-54 105-170 116-117 144-133 171-106s10 54-105 170c-116 117-144 133-171 106z"/><path d="m1840 2990c-6-12-9-29-5-39 3-9 57-68 119-130 98-97 118-112 143-109 20 2 30 11 37 31 10 26 4 33-109 147-95 95-125 120-147 120-17 0-31-8-38-20z"/><path d="m2260 2991c-5-11-10-25-10-32s53-65 117-131c120-121 144-135 177-102 9 8 16 23 16 31 0 9-53 69-117 135-93 94-123 118-145 118-17 0-31-7-38-19z"/><path d="m2682 2998c-27-27-10-54 105-170 79-80 125-118 140-118 26 0 54 35 46 59-3 9-56 67-117 129-112 114-143 131-174 100z"/><path d="m3102 2998c-27-27-10-54 105-170 116-117 144-133 171-106s10 54-105 170c-116 117-144 133-171 106z"/><path d="m3516 2989c-22-32-6-56 117-176 105-104 135-121 165-91 27 27 10 54-105 170-123 124-148 137-177 97z"/><path d="m908 2683c-116-117-133-144-106-171 28-28 55-11 176 112 110 111 122 126 114 147-6 17-18 25-38 27-25 2-45-13-146-115z"/><path d="m1323 2687c-114-114-132-144-101-175 27-27 55-11 171 106 115 116 132 143 105 170-31 31-61 13-175-101z"/><path d="m1742 2687c-114-114-131-144-100-175 27-27 54-10 170 105 117 116 133 144 106 171-31 31-62 14-176-101z"/><path d="m2157 2682c-64-66-117-126-117-134 0-20 32-48 55-48 20 0 242 213 250 241 10 29-12 59-43 59-22 0-52-24-145-118z"/><path d="m2577 2682c-64-64-117-125-117-134 0-23 27-48 52-48 24 0 221 188 244 233 19 36 4 67-34 67-22 0-52-25-145-118z"/><path d="m2997 2682c-115-116-132-143-105-170s55-11 171 106c115 116 132 143 105 170s-55 11-171-106z"/><path d="m3412 2687c-114-114-131-144-100-175 27-27 54-10 170 105 117 116 133 144 106 171-31 31-62 14-176-101z"/><path d="m1022 2584c-41-29-28-53 96-177 116-115 143-132 170-105 32 32 14 62-106 181-66 64-123 117-128 117s-20-7-32-16z"/><path d="m1442 2589c-15-6-22-17-22-36 0-23 24-52 120-148 114-113 121-119 147-109 20 7 29 17 31 37 3 25-12 45-108 142-62 62-120 115-129 118-9 2-27 0-39-4z"/><path d="m1850 2580c-11-11-20-25-20-32 0-6 56-68 124-136 110-112 126-124 149-118 18 4 29 15 33 33 6 23-6 39-118 149-68 68-130 124-136 124-7 0-21-9-32-20z"/><path d="m2270 2582c-17-14-21-25-17-43 8-33 228-249 254-249 27 0 56 34 49 57s-238 253-253 253c-6 0-21-8-33-18z"/><path d="m2692 2584c-42-29-29-54 96-177 116-114 144-131 170-105 32 32 14 62-106 181-66 64-123 117-128 117s-20-7-32-16z"/><path d="m3111 2583c-40-28-26-53 97-176 116-115 143-132 170-105 30 30 13 60-99 174-61 62-119 114-129 117s-28-2-39-10z"/><path d="m3528 2588c-40-33-33-47 95-176 111-112 127-124 150-118 18 4 29 15 33 33 6 23-6 39-118 149-68 68-129 124-134 124-6 0-17-6-26-12z"/><path d="m908 2272c-77-77-118-125-118-139 0-26 25-53 49-53 9 0 72 56 139 124 96 96 121 127 116 142-8 24-33 44-53 44-8 0-68-53-133-118z"/><path d="m1328 2273c-94-93-118-123-118-145 0-26 23-48 51-48 7 0 65 53 131 117 94 93 118 123 118 145 0 26-23 48-51 48-7 0-65-53-131-117z"/><path d="m1748 2273c-91-90-118-123-118-143 0-31 17-50 44-50 24 0 245 216 253 248 6 25-20 62-45 62-8 0-68-53-134-117z"/><path d="m2168 2273c-65-64-121-125-124-136-7-23 22-57 49-57 26 0 246 216 254 249 4 18 0 29-17 43-12 10-27 18-33 18-5 0-63-53-129-117z"/><path d="m2582 2267c-67-67-122-129-122-138 0-19 31-49 51-49 17 0 259 241 259 258 0 16-37 52-53 52-7 0-67-55-135-123z"/><path d="m2997 2271c-103-103-118-122-115-147 2-21 11-31 31-38 26-10 33-4 147 109 95 95 120 125 120 147 0 27-23 48-51 48-7 0-67-53-132-119z"/><path d="m3418 2273c-94-93-118-123-118-145 0-26 23-48 51-48 7 0 65 53 131 117 121 120 135 144 102 177-8 9-23 16-31 16-9 0-69-53-135-117z"/><path d="m1016 2164c-32-31-18-55 96-170 61-63 120-116 129-119 29-10 59 12 59 43 0 22-24 52-118 145-66 64-126 117-135 117-8 0-23-7-31-16z"/><path d="m1438 2169c-10-6-18-22-18-38 0-21 24-51 118-144 66-64 126-117 135-117 23 0 47 28 47 54 0 25-227 256-251 256-8 0-22-5-31-11z"/><path d="m1850 2160c-11-11-20-25-20-32 0-16 230-247 253-254 28-9 61 27 54 58-8 29-228 248-250 248-10 0-26-9-37-20z"/><path d="m2267 2162c-10-10-17-25-17-33s56-70 124-138c104-104 127-122 145-116 12 4 27 18 33 31 11 24 4 32-113 150-68 68-131 124-140 124s-23-8-32-18z"/><path d="m2686 2164c-32-31-18-55 96-170 61-63 120-116 129-119 29-10 59 12 59 43 0 22-24 52-118 145-66 64-126 117-135 117-8 0-23-7-31-16z"/><path d="m3108 2169c-10-6-18-22-18-38 0-21 24-51 118-144 66-64 124-117 131-117 28 0 51 22 51 48 0 22-24 52-118 145-66 64-125 117-133 117s-22-5-31-11z"/><path d="m3528 2169c-10-6-18-22-18-38 0-21 24-51 118-144 66-64 126-117 134-117 25 0 51 37 45 62-7 28-228 248-248 248-8 0-22-5-31-11z"/><path d="m913 1858c-123-122-140-150-103-180 12-10 27-18 33-18 15 0 244 229 250 250 7 25-20 60-45 60-13 0-63-41-135-112z"/><path d="m1327 1852c-77-77-117-125-117-139 0-25 25-53 47-53 9 0 69 53 135 117 94 93 118 123 118 145 0 27-23 48-52 48-7 0-66-53-131-118z"/><path d="m1747 1852c-93-93-117-123-117-145 0-41 39-56 77-29 58 41 223 219 223 240 0 25-25 52-48 52-10 0-70-53-135-118z"/><path d="m2162 1847c-67-67-122-128-122-135 0-15 36-52 52-52 18 0 258 242 258 260 0 20-31 50-51 50-8 0-69-55-137-123z"/><path d="m2583 1858c-123-122-140-150-103-180 12-10 27-18 33-18 12 0 234 217 249 243 13 24-15 67-44 67-13 0-62-40-135-112z"/><path d="m2998 1853c-78-77-118-124-118-138 0-24 29-55 50-55 7 0 66 53 132 117 120 119 138 149 106 181-26 26-54 9-170-105z"/><path d="m3417 1852c-91-92-117-123-117-144 0-31 30-53 59-43 9 3 68 56 129 119 85 86 112 119 112 139 0 26-24 47-52 47-7 0-66-53-131-118z"/><path d="m1012 1748c-30-30-13-60 91-165 56-58 113-111 127-118 36-18 70-3 70 32 0 22-24 52-117 145-116 117-144 133-171 106z"/><path d="m1432 1748c-31-31-14-62 101-174 61-61 119-114 128-117 23-8 59 20 59 46 0 14-39 61-117 139-116 117-144 133-171 106z"/><path d="m1845 1736c-12-18-14-30-6-43 14-27 223-229 243-236 27-9 62 25 55 54-9 35-228 249-255 249-12 0-29-11-37-24z"/><path d="m2266 1744c-9-8-16-23-16-33 0-9 55-72 123-139 102-100 127-120 145-115 27 7 45 37 37 62-3 9-56 68-119 129-115 114-139 128-170 96z"/><path d="m2686 1744c-9-8-16-23-16-33 0-9 56-72 124-139 109-108 126-121 146-114 13 5 27 19 32 32 7 20-6 37-114 146-67 68-130 124-139 124-10 0-25-7-33-16z"/><path d="m3102 1748c-30-30-13-60 99-174 61-62 119-114 129-117 26-7 60 20 60 46 0 14-39 61-117 139-116 117-144 133-171 106z"/><path d="m3517 1739c-8-11-13-28-10-38 5-21 221-236 244-244s59 20 59 46c0 14-39 61-117 139-123 123-148 137-176 97z"/><path d="m907 1432c-115-116-132-143-105-170 31-31 62-14 174 101 61 61 114 119 117 128 8 24-20 59-46 59-15 0-61-38-140-118z"/><path d="m1327 1432c-115-116-132-143-105-170 31-31 61-13 175 101s132 144 101 175c-27 27-55 11-171-106z"/><path d="m1747 1432c-104-104-118-123-115-148 2-24 8-30 32-32 25-3 44 11 148 115 117 116 133 144 106 171s-55 11-171-106z"/><path d="m2164 1438c-63-61-116-120-119-129-10-29 12-59 43-59 22 0 52 24 145 118 64 66 117 126 117 135 0 22-28 47-52 47-13 0-63-41-134-112z"/><path d="m2577 1432c-114-116-131-144-105-170 32-32 62-14 181 106 64 66 117 123 117 128s-7 20-16 32c-29 42-54 29-177-96z"/><path d="m2997 1432c-115-116-132-143-105-170 31-31 62-14 176 101 114 114 131 144 100 175-27 27-55 11-171-106z"/><path d="m3417 1432c-115-116-132-143-105-170s55-11 171 106c115 116 132 143 105 170s-55 11-171-106z"/><path d="m1012 1328c-27-27-10-54 105-170 116-117 144-133 171-106 29 29 12 56-105 172-116 114-144 131-171 104z"/><path d="m1432 1328c-31-31-13-61 101-175s144-132 175-101c27 27 10 54-105 170-116 117-144 133-171 106z"/><path d="m1846 1318c-9-12-16-27-16-32s53-62 117-128c119-120 149-138 181-106 27 27 10 54-105 170-124 124-148 137-177 96z"/><path d="m2260 1321c-5-11-10-25-10-32s53-65 117-131c93-94 123-118 145-118 26 0 48 23 48 51 0 7-53 65-117 131-93 94-123 118-145 118-17 0-31-7-38-19z"/><path d="m2682 1328c-27-27-10-54 105-170 123-124 148-137 177-97 22 32 6 56-117 177-105 103-135 120-165 90z"/><path d="m3102 1328c-27-27-10-54 105-170 116-117 144-133 171-106s10 54-105 170c-116 117-144 133-171 106z"/><path d="m3516 1319c-8-12-12-29-9-38s56-67 117-128c112-115 143-132 174-101 27 27 10 54-105 170-123 124-148 137-177 97z"/><path d="m907 1012c-115-116-132-143-105-170 30-30 60-13 165 91 128 125 150 162 109 189-30 20-56 3-169-110z"/><path d="m1327 1012c-115-116-132-143-105-170s55-11 171 106c115 116 132 143 105 170s-55 11-171-106z"/><path d="m1742 1017c-114-114-131-144-100-175 27-27 54-10 170 105 117 116 133 144 106 171-31 31-62 14-176-101z"/><path d="m2157 1012c-64-66-117-126-117-135 0-8 7-23 16-31 33-33 57-19 177 102 64 66 117 124 117 131 0 28-22 51-48 51-22 0-52-24-145-118z"/><path d="m2575 1010c-113-114-119-121-109-147 7-20 17-29 37-31 25-3 45 12 143 109 62 62 116 121 119 130 10 29-12 59-43 59-22 0-52-25-147-120z"/><path d="m2997 1012c-115-116-132-143-105-170s55-11 171 106c115 116 132 143 105 170s-55 11-171-106z"/><path d="m3413 1017c-114-114-132-144-101-175 27-27 55-11 171 106 115 116 132 143 105 170-31 31-61 13-175-101z"/><path d="m1012 908c-27-27-10-54 105-170 116-117 144-133 171-106 31 31 14 62-101 176-114 114-144 131-175 100z"/><path d="m1432 908c-27-27-10-54 105-170 116-117 144-133 171-106 28 28 11 56-104 172s-143 133-172 104z"/><path d="m1840 900c-8-15-7-27 4-47 23-45 220-233 244-233 25 0 52 25 52 48 0 10-53 70-118 135-92 91-123 117-144 117-17 0-31-8-38-20z"/><path d="m2260 900c-6-12-9-29-5-39 9-30 230-241 252-241s53 29 53 50c0 7-53 66-117 132-93 94-123 118-145 118-17 0-31-7-38-20z"/><path d="m2682 908c-27-27-10-54 105-170 116-117 144-133 171-106 31 31 14 62-101 176-114 114-144 131-175 100z"/><path d="m3102 908c-27-27-10-54 105-170 116-117 144-133 171-106 31 31 13 61-101 175s-144 132-175 101z"/><path d="m3513 903c-3-10-8-22-11-26-2-5 51-64 119-133 122-123 149-140 177-112 27 27 11 55-106 171-93 93-123 117-145 117-17 0-30-7-34-17z"/></g></svg>