<svg xmlns="http://www.w3.org/2000/svg" viewBox="0 0 128 128" xmlns:v="https://vecta.io/nano"><path d="M30.433 30.885v-.077a2.071 2.071 0 0 0-2.531-2.018 11.307 11.307 0 0 0-8.469 8.468 2.073 2.073 0 0 0 2.018 2.535h.072a2.105 2.105 0 0 0 2.026-1.664 7.094 7.094 0 0 1 5.221-5.222 2.103 2.103 0 0 0 1.663-2.022zm-1.848-6.897a2.102 2.102 0 1 0-.521-4.172 20.155 20.155 0 0 0-17.606 17.606 2.113 2.113 0 0 0 2.09 2.369h0a2.095 2.095 0 0 0 2.082-1.848q.025-.209.055-.417a15.946 15.946 0 0 1 13.483-13.483q.208-.03.416-.055zm-.352-9.275q.127-.011.254-.021a2.103 2.103 0 0 0-.285-4.196A29.422 29.422 0 0 0 1.136 37.562a2.102 2.102 0 0 0 4.194.274q.009-.12.019-.24a25.234 25.234 0 0 1 22.883-22.883zm.166 28.973v5.336h74.068v-5.336a6.562 6.562 0 0 0-6.564-6.564h-60.94a6.562 6.562 0 0 0-6.564 6.564z" fill="white"/><path d="M102.466 80.556V61.12H28.399v19.435a6.562 6.562 0 0 0 6.564 6.564h60.939a6.562 6.562 0 0 0 6.564-6.564zm16.886-72.889H60.807a7.517 7.517 0 0 0-7.517 7.517v14.75a1.186 1.186 0 0 0 1.186 1.186h5.144a1.186 1.186 0 0 0 1.186-1.186v-6.607a3.132 3.132 0 0 1 3.132-3.132h52.281a3.132 3.132 0 0 1 3.132 3.132v77.586a3.132 3.132 0 0 1-3.132 3.132h-52.28a3.132 3.132 0 0 1-3.132-3.132v-6.606a1.186 1.186 0 0 0-1.186-1.186h-5.144a1.186 1.186 0 0 0-1.186 1.186v18.508a7.517 7.517 0 0 0 7.517 7.517h58.545a7.517 7.517 0 0 0 7.517-7.517V15.184a7.517 7.517 0 0 0-7.517-7.517zm-23.39 107.319H84.198a2.797 2.797 0 0 1 0-5.593h11.764a2.797 2.797 0 0 1 0 5.593z" fill="white"/></svg>